<?xml version="1.0" encoding="UTF-8"?>
<!DOCTYPE svg PUBLIC "-//W3C//DTD SVG 1.1//EN" "http://www.w3.org/Graphics/SVG/1.1/DTD/svg11.dtd">
<!-- Creator: CorelDRAW -->
<svg xmlns="http://www.w3.org/2000/svg" xml:space="preserve" width="297mm" height="210mm" version="1.1" style="shape-rendering:geometricPrecision; text-rendering:geometricPrecision; image-rendering:optimizeQuality; fill-rule:evenodd; clip-rule:evenodd"
viewBox="0 0 29700 21000"
 xmlns:xlink="http://www.w3.org/1999/xlink"
 xmlns:xodm="http://www.corel.com/coreldraw/odm/2003">
 <defs>
  <style type="text/css">
   <![CDATA[
    .str0 {stroke:#132F45;stroke-width:20;stroke-miterlimit:22.9256}
    .str4 {stroke:#143046;stroke-width:20;stroke-miterlimit:22.9256}
    .str6 {stroke:#14647D;stroke-width:20;stroke-miterlimit:22.9256}
    .str3 {stroke:#1E4561;stroke-width:20;stroke-miterlimit:22.9256}
    .str2 {stroke:#282761;stroke-width:20;stroke-miterlimit:22.9256}
    .str5 {stroke:#299AAA;stroke-width:20;stroke-miterlimit:22.9256}
    .str9 {stroke:#2B9BA9;stroke-width:20;stroke-miterlimit:22.9256}
    .str7 {stroke:#322D6F;stroke-width:20;stroke-miterlimit:22.9256}
    .str1 {stroke:#38327C;stroke-width:20;stroke-miterlimit:22.9256}
    .str8 {stroke:#413E85;stroke-width:20;stroke-miterlimit:22.9256}
    .fil0 {fill:#132F45}
    .fil4 {fill:#143046}
    .fil6 {fill:#14647D}
    .fil3 {fill:#1E4561}
    .fil2 {fill:#282761}
    .fil5 {fill:#299AAA}
    .fil9 {fill:#2B9BA9}
    .fil7 {fill:#322D6F}
    .fil1 {fill:#38327C}
    .fil8 {fill:#413E85}
   ]]>
  </style>
 </defs>
 <g id="Camada_x0020_1">
  <metadata id="CorelCorpID_0Corel-Layer"/>
  <ellipse class="fil0 str0" cx="14867.77" cy="9476.41" rx="2237.56" ry="2178.82"/>
  <path class="fil1 str1" d="M16941.74 7834.86c341.12,351.19 473.16,702.39 548.15,1053.57l3352.92 -1053.57c-498.31,-438.99 -2534.27,-500.68 -3901.07,0z"/>
  <path class="fil2 str2" d="M17489.89 8888.43c80.07,438.08 71.81,900.23 -56.95,1395.27 1869.85,-538.65 3568.86,-2202.06 3409.87,-2448.84l-3352.92 1053.57z"/>
  <path class="fil1 str1" d="M12849.93 7810.39c-341.12,351.19 -473.16,702.39 -548.15,1053.57l-3352.92 -1053.57c498.31,-438.99 2534.27,-500.68 3901.07,0z"/>
  <path class="fil2 str2" d="M12301.78 8863.96c-80.07,438.08 -71.81,900.23 56.95,1395.27 -1869.85,-538.65 -3568.86,-2202.06 -3409.87,-2448.84l3352.92 1053.57z"/>
  <path class="fil3 str3" d="M12385.63 10661.08c181.94,422.06 475.4,754.91 847.15,1025.12l-2690.96 2883.17c-196.96,-213.56 303.75,-2512.99 1843.81,-3908.29z"/>
  <path class="fil4 str4" d="M14523.1 12154.27c-410.13,-17.81 -832.11,-160.09 -1274.29,-455.61l-2690.96 2883.17c175.6,294.25 2743.17,-543.4 3965.25,-2427.56z"/>
  <path class="fil5 str5" d="M17392.2 10624.5c-178.51,423.52 -469.27,758.74 -838.82,1031.95l2714.23 2861.28c195.23,-215.15 -324.1,-2510.45 -1875.41,-3893.23z"/>
  <path class="fil6 str6" d="M15266.9 12134.96c409.97,-21.13 830.78,-166.83 1270.56,-465.92l2714.22 2861.28c-173.21,295.66 -2747.48,-521.16 -3984.78,-2395.36z"/>
  <path class="fil7 str7" d="M13649.29 7293.56c382.78,-161.99 840.27,-277.82 1281.91,-282.86l-55.12 -2971.56c-326.13,191.27 -1291.75,2295.13 -1226.79,3254.42z"/>
  <path class="fil8 str8" d="M14931.2 7010.7c401.3,36.53 797.39,121.2 1198.39,280.8 210.88,-63.75 -678.22,-3014.58 -1253.51,-3252.36l55.12 2971.56z"/>
  <rect class="fil9 str9" x="14088.18" y="7952.62" width="626.61" height="821.9"/>
  <rect class="fil5 str5" x="13146.42" y="9184.45" width="590.99" height="733.39"/>
  <rect class="fil5 str5" x="16058.65" y="9170.21" width="590.99" height="733.39"/>
  <rect class="fil9 str9" x="15088.62" y="7959.75" width="626.61" height="821.9"/>
  <rect class="fil9 str9" x="14081.06" y="9177.36" width="626.61" height="722.21"/>
  <rect class="fil9 str9" x="15088.62" y="9177.36" width="626.61" height="722.21"/>
  <path class="fil5 str5" d="M13749.95 8785.7l-2.14 -638.81c-292.22,141.99 -522.86,371.52 -597.82,638.81l599.96 0z"/>
  <path class="fil5 str5" d="M16051.74 8778.58l2.14 -638.81c292.22,141.99 522.86,371.52 597.82,638.81l-599.96 0z"/>
  <path class="fil5 str5" d="M16055.29 10290.25l2.14 638.81c292.22,-141.99 522.86,-371.52 597.82,-638.81l-599.96 0z"/>
  <path class="fil5 str5" d="M13746.4 10290.26l-2.14 638.81c-292.22,-141.99 -522.86,-371.52 -597.82,-638.81l599.96 0z"/>
  <rect class="fil9 str9" x="14081.06" y="10281.14" width="626.61" height="821.9"/>
  <rect class="fil9 str9" x="15085.1" y="10281.14" width="626.61" height="821.9"/>
 </g>
</svg>
