<?xml version="1.0" encoding="UTF-8"?>
<!DOCTYPE svg PUBLIC "-//W3C//DTD SVG 1.1//EN" "http://www.w3.org/Graphics/SVG/1.1/DTD/svg11.dtd">
<!-- Creator: CorelDRAW -->
<svg xmlns="http://www.w3.org/2000/svg" xml:space="preserve" width="254mm" height="254mm" version="1.1" style="shape-rendering:geometricPrecision; text-rendering:geometricPrecision; image-rendering:optimizeQuality; fill-rule:evenodd; clip-rule:evenodd"
viewBox="0 0 25400 25400"
 xmlns:xlink="http://www.w3.org/1999/xlink"
 xmlns:xodm="http://www.corel.com/coreldraw/odm/2003">
 <defs>
  <style type="text/css">
   <![CDATA[
    .str0 {stroke:#132F45;stroke-width:20;stroke-miterlimit:22.9256}
    .str4 {stroke:#143046;stroke-width:20;stroke-miterlimit:22.9256}
    .str6 {stroke:#14647D;stroke-width:20;stroke-miterlimit:22.9256}
    .str3 {stroke:#1E4561;stroke-width:20;stroke-miterlimit:22.9256}
    .str2 {stroke:#282761;stroke-width:20;stroke-miterlimit:22.9256}
    .str5 {stroke:#299AAA;stroke-width:20;stroke-miterlimit:22.9256}
    .str9 {stroke:#2B9BA9;stroke-width:20;stroke-miterlimit:22.9256}
    .str7 {stroke:#322D6F;stroke-width:20;stroke-miterlimit:22.9256}
    .str1 {stroke:#38327C;stroke-width:20;stroke-miterlimit:22.9256}
    .str8 {stroke:#413E85;stroke-width:20;stroke-miterlimit:22.9256}
    .fil0 {fill:#334D64}
    .fil5 {fill:#344F64}
    .fil7 {fill:#357F98}
    .fil4 {fill:#3E6680}
    .fil2 {fill:#46467C}
    .fil8 {fill:#484781}
    .fil10 {fill:#4BB7C4}
    .fil6 {fill:#4CB3C2}
    .fil9 {fill:#575191}
    .fil1 {fill:#585697}
    .fil3 {fill:#595497}
    .fil11 {fill:url(#id0)}
   ]]>
  </style>
  <linearGradient id="id0" gradientUnits="userSpaceOnUse" x1="11540.66" y1="12100.14" x2="11540.68" y2="12100.1">
   <stop offset="0" style="stop-opacity:1; stop-color:#4BB7C4"/>
   <stop offset="1" style="stop-opacity:1; stop-color:#FEFEFE"/>
  </linearGradient>
 </defs>
 <g id="Camada_x0020_1">
  <metadata id="CorelCorpID_0Corel-Layer"/>
  <ellipse class="fil0 str0" cx="12520.9" cy="11971.66" rx="4633.17" ry="4511.54"/>
  <path class="fil1 str1" d="M16815.34 8572.61c706.33,727.18 979.74,1454.39 1135.02,2181.56l6942.67 -2181.56c-1031.82,-908.99 -5247.55,-1036.73 -8077.69,0z"/>
  <path class="fil2 str2" d="M17950.36 10754.17c165.79,907.1 148.69,1864.04 -117.93,2889.09 3871.78,-1115.35 7389.81,-4559.66 7060.6,-5070.65l-6942.67 2181.56z"/>
  <path class="fil3 str1" d="M8342.69 8521.94c-706.33,727.19 -979.74,1454.39 -1135.02,2181.56l-6942.67 -2181.56c1031.82,-908.99 5247.55,-1036.73 8077.69,0z"/>
  <path class="fil2 str2" d="M7207.67 10703.5c-165.79,907.1 -148.69,1864.05 117.93,2889.09 -3871.78,-1115.34 -7389.81,-4559.66 -7060.6,-5070.65l6942.67 2181.56z"/>
  <path class="fil4 str3" d="M7381.3 14424.68c376.73,873.93 984.38,1563.14 1754.14,2122.65l-5572 5969.99c-407.83,-442.21 628.95,-5203.49 3817.86,-8092.64z"/>
  <path class="fil5 str4" d="M11807.22 17516.53c-849.23,-36.88 -1723,-331.49 -2638.59,-943.4l-5572 5969.99c363.6,609.28 5680.11,-1125.18 8210.59,-5026.59z"/>
  <path class="fil6 str5" d="M17748.08 14348.93c-369.63,876.96 -971.69,1571.08 -1736.89,2136.8l5620.18 5924.66c404.25,-445.5 -671.1,-5198.22 -3883.29,-8061.46z"/>
  <path class="fil7 str6" d="M13347.36 17476.55c848.89,-43.76 1720.24,-345.45 2630.86,-964.76l5620.16 5924.67c-358.65,612.21 -5689.03,-1079.13 -8251.02,-4959.91z"/>
  <path class="fil8 str7" d="M9997.88 7451.77c792.59,-335.42 1739.89,-575.26 2654.36,-585.7l-114.13 -6153.01c-675.3,396.05 -2674.74,4752.37 -2540.23,6738.71z"/>
  <path class="fil9 str8" d="M12652.24 6866.07c830.95,75.64 1651.11,250.96 2481.43,581.44 436.66,-132.01 -1404.34,-6242.1 -2595.56,-6734.45l114.13 6153.01z"/>
  <rect class="fil10 str9" x="10906.65" y="8816.45" width="1297.48" height="1701.85"/>
  <rect class="fil11 str5" x="8956.6" y="11367.13" width="1223.72" height="1518.58"/>
  <rect class="fil10 str5" x="14986.79" y="11337.62" width="1223.72" height="1518.58"/>
  <rect class="fil10 str9" x="12978.21" y="8831.21" width="1297.48" height="1701.85"/>
  <rect class="fil10 str9" x="10891.9" y="11352.45" width="1297.48" height="1495.43"/>
  <rect class="fil10 str9" x="12978.21" y="11352.45" width="1297.48" height="1495.43"/>
  <path class="fil10 str5" d="M10206.31 10541.45l-4.44 -1322.74c-605.08,294.01 -1082.65,769.28 -1237.86,1322.74l1242.3 0z"/>
  <path class="fil10 str5" d="M14972.47 10526.71l4.43 -1322.75c605.08,294.01 1082.66,769.29 1237.87,1322.75l-1242.3 0z"/>
  <path class="fil10 str5" d="M14979.82 13656.82l4.43 1322.75c605.09,-294.01 1082.66,-769.29 1237.87,-1322.75l-1242.3 0z"/>
  <path class="fil10 str5" d="M10198.95 13656.84l-4.43 1322.75c-605.08,-294.01 -1082.65,-769.29 -1237.86,-1322.75l1242.29 0z"/>
  <rect class="fil10 str9" x="10891.9" y="13637.96" width="1297.48" height="1701.85"/>
  <rect class="fil10 str9" x="12970.9" y="13637.96" width="1297.48" height="1701.85"/>
 </g>
</svg>
