<!DOCTYPE svg PUBLIC "-//W3C//DTD SVG 1.1//EN" "http://www.w3.org/Graphics/SVG/1.1/DTD/svg11.dtd">
<!-- Uploaded to: SVG Repo, www.svgrepo.com, Transformed by: SVG Repo Mixer Tools -->
<svg width="800px" height="800px" viewBox="-5.76 -5.76 35.52 35.52" fill="none" xmlns="http://www.w3.org/2000/svg">
<g id="SVGRepo_bgCarrier" stroke-width="0"/>
<g id="SVGRepo_tracerCarrier" stroke-linecap="round" stroke-linejoin="round" stroke="#CCCCCC" stroke-width="0.288"> <path d="M15 4V7C15 8.10457 15.8954 9 17 9H20M9 4V7C9 8.10457 8.10457 9 7 9H4M15 20V17C15 15.8954 15.8954 15 17 15H20M9 20V17C9 15.8954 8.10457 15 7 15H4" stroke="#1E1055" stroke-width="1.44" stroke-linecap="round" stroke-linejoin="round"/> </g>
<g id="SVGRepo_iconCarrier"> <path d="M15 4V7C15 8.10457 15.8954 9 17 9H20M9 4V7C9 8.10457 8.10457 9 7 9H4M15 20V17C15 15.8954 15.8954 15 17 15H20M9 20V17C9 15.8954 8.10457 15 7 15H4" stroke="#1E1055" stroke-width="1.44" stroke-linecap="round" stroke-linejoin="round"/> </g>
</svg>